<?xml version="1.0" encoding="UTF-8"?>
<svg width="95px" height="88px" viewBox="0 0 95 88" version="1.1" xmlns="http://www.w3.org/2000/svg" xmlns:xlink="http://www.w3.org/1999/xlink">
    <!-- Generator: Sketch 46.2 (44496) - http://www.bohemiancoding.com/sketch -->
    <title>childcare</title>
    <desc>Created with Sketch.</desc>
    <defs></defs>
    <g id="Page-1" stroke="none" stroke-width="1" fill="none" fill-rule="evenodd">
        <g id="childcare" transform="translate(1.000000, 1.000000)">
            <path d="M37,29.6 L45.49,8 L47.8,8 L56.08,29.6 L53.98,29.6 L51.49,22.82 L41.65,22.82 L39.1,29.6 L37,29.6 Z M42.34,21.08 L50.8,21.08 L46.57,9.74 L42.34,21.08 Z" id="A" fill="#CF89FB"></path>
            <path d="M14.04,74.86 L19.23,74.86 C20.3500056,74.86 21.3249959,74.8100005 22.155,74.71 C22.9850042,74.6099995 23.6699973,74.4050015 24.21,74.095 C24.7500027,73.7849984 25.1549987,73.3450028 25.425,72.775 C25.6950013,72.2049971 25.83,71.4500047 25.83,70.51 C25.83,69.6099955 25.6800015,68.8850027 25.38,68.335 C25.0799985,67.7849972 24.6500028,67.3600015 24.09,67.06 C23.5299972,66.7599985 22.8600039,66.5550005 22.08,66.445 C21.2999961,66.3349994 20.4300048,66.28 19.47,66.28 L14.04,66.28 L14.04,74.86 Z M14.04,64.54 L19.2,64.54 C20.2600053,64.54 21.1499964,64.4500009 21.87,64.27 C22.5900036,64.0899991 23.1699978,63.8250017 23.61,63.475 C24.0500022,63.1249982 24.3649991,62.6950025 24.555,62.185 C24.7450009,61.6749974 24.84,61.0900033 24.84,60.43 C24.84,59.7499966 24.7300011,59.1750023 24.51,58.705 C24.2899989,58.2349976 23.9400024,57.8550014 23.46,57.565 C22.9799976,57.2749985 22.3550039,57.0650006 21.585,56.935 C20.8149961,56.8049993 19.8700056,56.74 18.75,56.74 L14.04,56.74 L14.04,64.54 Z M12,76.6 L12,55 L19.8,55 C21.0600063,55 22.1399955,55.1299987 23.04,55.39 C23.9400045,55.6500013 24.6749972,56.0199976 25.245,56.5 C25.8150028,56.9800024 26.2299987,57.5549966 26.49,58.225 C26.7500013,58.8950033 26.88,59.629996 26.88,60.43 C26.88,61.1900038 26.780001,61.8449972 26.58,62.395 C26.379999,62.9450027 26.1200016,63.4049981 25.8,63.775 C25.4799984,64.1450018 25.1150021,64.4349989 24.705,64.645 C24.294998,64.855001 23.8700022,64.9999996 23.43,65.08 L23.43,65.14 C24.9300075,65.3600011 26.0449963,65.9499952 26.775,66.91 C27.5050036,67.8700048 27.87,69.0699928 27.87,70.51 C27.87,71.6300056 27.6950018,72.5799961 27.345,73.36 C26.9949983,74.1400039 26.5100031,74.7699976 25.89,75.25 C25.2699969,75.7300024 24.5250044,76.0749989 23.655,76.285 C22.7849956,76.495001 21.8400051,76.6 20.82,76.6 L12,76.6 Z" id="B" fill="#CF89FB"></path>
            <path d="M79.32,61.84 C78.8999979,59.9999908 78.1200057,58.6900039 76.98,57.91 C75.8399943,57.1299961 74.3500092,56.74 72.51,56.74 C71.2099935,56.74 70.0900047,56.9999974 69.15,57.52 C68.2099953,58.0400026 67.4350031,58.7399956 66.825,59.62 C66.2149969,60.5000044 65.7650014,61.5149943 65.475,62.665 C65.1849986,63.8150057 65.04,65.0299936 65.04,66.31 C65.04,67.510006 65.1649987,68.6899942 65.415,69.85 C65.6650013,71.0100058 66.0799971,72.0449955 66.66,72.955 C67.2400029,73.8650045 68.0199951,74.5999972 69,75.16 C69.9800049,75.7200028 71.2099926,76 72.69,76 C73.6100046,76 74.4499962,75.8500015 75.21,75.55 C75.9700038,75.2499985 76.6349972,74.8350026 77.205,74.305 C77.7750028,73.7749973 78.2549981,73.1500036 78.645,72.43 C79.035002,71.7099964 79.329999,70.9200043 79.53,70.06 L81.66,70.06 C81.4199988,71.1000052 81.0700023,72.0849953 80.61,73.015 C80.1499977,73.9450047 79.5450038,74.7599965 78.795,75.46 C78.0449962,76.1600035 77.1350054,76.7149979 76.065,77.125 C74.9949946,77.5350021 73.7400072,77.74 72.3,77.74 C70.6399917,77.74 69.2200059,77.4350031 68.04,76.825 C66.8599941,76.2149969 65.8950038,75.3900052 65.145,74.35 C64.3949963,73.3099948 63.8500017,72.1050069 63.51,70.735 C63.1699983,69.3649932 63,67.9100077 63,66.37 C63,64.3099897 63.2549975,62.5600072 63.765,61.12 C64.2750026,59.6799928 64.9799955,58.5050046 65.88,57.595 C66.7800045,56.6849955 67.8399939,56.0250021 69.06,55.615 C70.2800061,55.204998 71.6099928,55 73.05,55 C74.1500055,55 75.1749952,55.1449986 76.125,55.435 C77.0750048,55.7250015 77.9149963,56.1599971 78.645,56.74 C79.3750036,57.3200029 79.9749977,58.0349958 80.445,58.885 C80.9150024,59.7350043 81.2399991,60.7199944 81.42,61.84 L79.32,61.84 Z" id="C" fill="#CF89FB"></path>
            <polygon id="Path-9" stroke="#CF89FB" stroke-width="2" points="26 0 66.1694336 0 66.1694336 38.4716797 26 38.4716797"></polygon>
            <polygon id="Path-9-Copy" stroke="#CF89FB" stroke-width="2" points="0 47 40.1694336 47 40.1694336 85.4716797 0 85.4716797"></polygon>
            <polygon id="Path-9-Copy-2" stroke="#CF89FB" stroke-width="2" points="52 47 92.1694336 47 92.1694336 85.4716797 52 85.4716797"></polygon>
        </g>
    </g>
</svg>