<?xml version="1.0" encoding="UTF-8"?>
<svg width="94px" height="91px" viewBox="0 0 94 91" version="1.1" xmlns="http://www.w3.org/2000/svg" xmlns:xlink="http://www.w3.org/1999/xlink">
    <!-- Generator: Sketch 46.2 (44496) - http://www.bohemiancoding.com/sketch -->
    <title>insurance</title>
    <desc>Created with Sketch.</desc>
    <defs></defs>
    <g id="Page-1" stroke="none" stroke-width="1" fill="none" fill-rule="evenodd">
        <g id="insurance" transform="translate(2.000000, 0.000000)" stroke="#53ACE7" stroke-width="2">
            <path d="M45.6601562,0.79296875 C45.6601562,4.55476482 45.6601562,7.34301352 45.6601562,9.15771484 M45.6601562,44.4370117 C45.6601562,62.2195886 45.6601562,75.1292566 45.6601562,83.1660156 C49.390625,93.9423828 60.6464844,87.7324219 60.1464844,83.1660156" id="Path-18"></path>
            <path d="M61.2529297,53.1313477 C55.9651475,47.3943685 50.6878038,44.5258789 45.4208984,44.5258789 C40.1710394,44.5258789 34.9316189,47.3943685 29.7026367,53.1313477 C24.2482345,47.3943685 19.0524337,44.5258789 14.1152344,44.5258789 C9.45640507,44.5258789 5.02639205,46.6920573 0.825195312,51.0244141 C7.84082031,23.2366536 22.7060547,9.31396484 45.4208984,9.25634766 C68.4862895,9.19784129 83.2907328,23.1205301 89.8342285,51.0244141 C85.8175988,46.6920573 81.4582238,44.5258789 76.7561035,44.5258789 C71.8896203,44.5258789 66.7218956,47.3943685 61.2529297,53.1313477 Z" id="Path-19"></path>
        </g>
    </g>
</svg>