<?xml version="1.0" encoding="UTF-8"?>
<svg width="93px" height="93px" viewBox="0 0 93 93" version="1.1" xmlns="http://www.w3.org/2000/svg" xmlns:xlink="http://www.w3.org/1999/xlink">
    <!-- Generator: Sketch 46.2 (44496) - http://www.bohemiancoding.com/sketch -->
    <title>sports</title>
    <desc>Created with Sketch.</desc>
    <defs></defs>
    <g id="Page-1" stroke="none" stroke-width="1" fill="none" fill-rule="evenodd">
        <g id="sports" transform="translate(1.000000, 1.000000)" stroke="#59CD90" stroke-width="2">
            <circle id="Oval" cx="45.5" cy="45.5" r="45.5"></circle>
            <path d="M2.13671875,58.5644531 C14.2846882,58.7506946 23.0208536,58.0006946 28.3452148,56.3144531 C33.6695761,54.6282116 39.6921998,50.704058 46.4130859,44.5419922 C44.7595864,33.4168137 44.3784015,25.4425298 45.2695312,20.6191406 C46.160661,15.7957514 49.2553875,9.08253528 54.5537109,0.479492188" id="Path-10"></path>
            <path d="M82.1748047,72.7988281 C74.4445293,62.2678886 68.5294902,55.3590344 64.4296875,52.0722656 C60.3298848,48.7854968 54.4148457,46.2103015 46.6845703,44.3466797" id="Path-11"></path>
            <path d="M33.5419922,54.4384766 C29.206201,42.8026707 27.1310057,33.9179051 27.3164062,27.7841797 C27.5018068,21.6504543 30.1141115,12.7656887 35.1533203,1.12988281" id="Path-12"></path>
            <path d="M18.2285156,58.0449219 C13.5462132,48.2995289 11.1409398,40.7451669 11.0126953,35.3818359 C10.8844509,30.018505 12.9111436,21.7401847 17.0927734,10.546875" id="Path-13"></path>
            <path d="M90.6689453,53.4785156 C83.2256012,43.3332725 76.9814606,36.911723 71.9365234,34.2138672 C66.8915863,31.5160114 58.0230967,29.8558551 45.3310547,29.2333984" id="Path-14"></path>
            <path d="M85.8681641,24.5576172 C78.9786801,19.8097019 73.202964,16.7999362 68.5410156,15.5283203 C63.8790673,14.2567044 56.8367496,13.8351549 47.4140625,14.2636719" id="Path-15"></path>
            <path d="M14.6494141,78.9248047 C29.3181174,76.341339 39.5358909,73.3309223 45.3027344,69.8935547 C51.0695779,66.4561871 57.016518,59.8315126 63.1435547,50.0195312" id="Path-16"></path>
            <path d="M74.8837891,63.0673828 C68.8064733,71.2180237 63.3380488,76.7277893 58.4785156,79.5966797 C53.6189824,82.46557 44.7176152,85.4392028 31.7744141,88.5175781" id="Path-17"></path>
        </g>
    </g>
</svg>